<svg width="16" height="16" viewBox="0 0 16 16" fill="none" xmlns="http://www.w3.org/2000/svg">
<path d="M7.971 2C7.767 2 7.627 2 7.506 2.024C7.26356 2.07224 7.04087 2.19129 6.86608 2.36608C6.69129 2.54087 6.57224 2.76356 6.524 3.006C6.5 3.127 6.5 3.266 6.5 3.471V12.529C6.5 12.733 6.5 12.873 6.524 12.994C6.623 13.49 7.01 13.877 7.506 13.976C7.627 14 7.766 14 7.971 14H8.029C8.233 14 8.373 14 8.494 13.976C8.73644 13.9278 8.95913 13.8087 9.13392 13.6339C9.30871 13.4591 9.42776 13.2364 9.476 12.994C9.5 12.873 9.5 12.734 9.5 12.529V3.471C9.5 3.267 9.5 3.127 9.476 3.006C9.42776 2.76356 9.30871 2.54087 9.13392 2.36608C8.95913 2.19129 8.73644 2.07224 8.494 2.024C8.373 2 8.234 2 8.029 2H7.971Z" fill="black"/>
<path d="M3.471 7.5C3.267 7.5 3.127 7.5 3.006 7.524C2.76356 7.57224 2.54087 7.69129 2.36608 7.86608C2.19129 8.04087 2.07224 8.26356 2.024 8.506C2 8.627 2 8.766 2 8.971V12.529C2 12.733 2 12.873 2.024 12.994C2.123 13.49 2.51 13.877 3.006 13.976C3.127 14 3.266 14 3.471 14H3.529C3.733 14 3.873 14 3.994 13.976C4.23644 13.9278 4.45913 13.8087 4.63392 13.6339C4.80871 13.4591 4.92776 13.2364 4.976 12.994C5 12.873 5 12.734 5 12.529V8.971C5 8.767 5 8.627 4.976 8.506C4.92776 8.26356 4.80871 8.04087 4.63392 7.86608C4.45913 7.69129 4.23644 7.57224 3.994 7.524C3.873 7.5 3.734 7.5 3.529 7.5H3.471Z" fill="black"/>
<path d="M12.471 4.5C12.267 4.5 12.127 4.5 12.006 4.524C11.7636 4.57224 11.5409 4.69129 11.3661 4.86608C11.1913 5.04087 11.0722 5.26356 11.024 5.506C11 5.627 11 5.766 11 5.971V12.529C11 12.733 11 12.873 11.024 12.994C11.123 13.49 11.51 13.877 12.006 13.976C12.127 14 12.266 14 12.471 14H12.529C12.733 14 12.873 14 12.994 13.976C13.2364 13.9278 13.4591 13.8087 13.6339 13.6339C13.8087 13.4591 13.9278 13.2364 13.976 12.994C14 12.873 14 12.734 14 12.529V5.971C14 5.767 14 5.627 13.976 5.506C13.9278 5.26356 13.8087 5.04087 13.6339 4.86608C13.4591 4.69129 13.2364 4.57224 12.994 4.524C12.873 4.5 12.734 4.5 12.529 4.5H12.471Z" fill="black"/>
</svg>
