<svg width="16" height="16" viewBox="0 0 16 16" fill="none" xmlns="http://www.w3.org/2000/svg">
<path d="M10 6C10.2652 6 10.5196 5.89464 10.7071 5.70711C10.8946 5.51957 11 5.26522 11 5C11 4.73478 10.8946 4.48043 10.7071 4.29289C10.5196 4.10536 10.2652 4 10 4C9.73478 4 9.48043 4.10536 9.29289 4.29289C9.10536 4.48043 9 4.73478 9 5C9 5.26522 9.10536 5.51957 9.29289 5.70711C9.48043 5.89464 9.73478 6 10 6Z" fill="black"/>
<path fill-rule="evenodd" clip-rule="evenodd" d="M5.42 1.5H10.58C11.115 1.5 11.56 1.5 11.925 1.53C12.305 1.56 12.661 1.628 12.998 1.8C13.516 2.063 13.937 2.484 14.2 3.002C14.372 3.339 14.44 3.695 14.47 4.075C14.5 4.44 14.5 4.885 14.5 5.42V7.33C14.5 7.865 14.5 8.31 14.47 8.675C14.44 9.055 14.372 9.411 14.2 9.748C13.9372 10.2658 13.5166 10.6867 12.999 10.95C12.661 11.122 12.305 11.19 11.925 11.22C11.8292 11.228 11.7331 11.2336 11.637 11.237C11.5919 11.2458 11.546 11.2502 11.5 11.25H5.42C4.885 11.25 4.44 11.25 4.075 11.22C3.695 11.19 3.339 11.122 3.002 10.95C2.57811 10.7344 2.21737 10.4126 1.955 10.016C1.87227 9.92831 1.8119 9.82198 1.779 9.706C1.622 9.382 1.559 9.039 1.529 8.675C1.5 8.31 1.5 7.865 1.5 7.33V5.42C1.5 4.885 1.5 4.44 1.53 4.075C1.56 3.695 1.628 3.339 1.8 3.002C2.06311 2.48404 2.48404 2.06311 3.002 1.8C3.339 1.628 3.695 1.56 4.075 1.53C4.44 1.5 4.885 1.5 5.42 1.5ZM13 7.3L12.999 7.833L12.864 7.641C12.7097 7.42072 12.5067 7.23897 12.2708 7.10986C12.0349 6.98075 11.7724 6.90775 11.5037 6.89653C11.235 6.88531 10.9673 6.93617 10.7214 7.04516C10.4756 7.15416 10.2581 7.31835 10.086 7.525L9 8.828L6.589 5.935C6.42547 5.73883 6.22098 5.58083 5.98989 5.47209C5.75881 5.36335 5.50672 5.30651 5.25133 5.30556C4.99594 5.30461 4.74344 5.35956 4.51154 5.46658C4.27965 5.57359 4.07399 5.73006 3.909 5.925L3 6.998V5.45C3 4.878 3 4.493 3.025 4.197C3.048 3.91 3.09 3.773 3.136 3.683C3.256 3.447 3.447 3.256 3.683 3.136C3.773 3.09 3.91 3.048 4.197 3.025C4.493 3.001 4.877 3 5.45 3H10.55C11.122 3 11.507 3 11.802 3.025C12.09 3.048 12.227 3.09 12.318 3.136C12.553 3.256 12.744 3.447 12.864 3.683C12.91 3.773 12.952 3.91 12.975 4.197C12.999 4.493 13 4.877 13 5.45V7.3Z" fill="black"/>
<path d="M2 13.75C2 13.5511 2.07902 13.3603 2.21967 13.2197C2.36032 13.079 2.55109 13 2.75 13H8.25C8.44891 13 8.63968 13.079 8.78033 13.2197C8.92098 13.3603 9 13.5511 9 13.75C9 13.9489 8.92098 14.1397 8.78033 14.2803C8.63968 14.421 8.44891 14.5 8.25 14.5H2.75C2.55109 14.5 2.36032 14.421 2.21967 14.2803C2.07902 14.1397 2 13.9489 2 13.75Z" fill="black"/>
<path d="M10.75 13C10.5511 13 10.3603 13.079 10.2197 13.2197C10.079 13.3603 10 13.5511 10 13.75C10 13.9489 10.079 14.1397 10.2197 14.2803C10.3603 14.421 10.5511 14.5 10.75 14.5H13.25C13.4489 14.5 13.6397 14.421 13.7803 14.2803C13.921 14.1397 14 13.9489 14 13.75C14 13.5511 13.921 13.3603 13.7803 13.2197C13.6397 13.079 13.4489 13 13.25 13H10.75Z" fill="black"/>
</svg>
