<svg width="16" height="16" viewBox="0 0 16 16" fill="none" xmlns="http://www.w3.org/2000/svg">
<path d="M4.5 4.5C4.5 3.57174 4.86875 2.6815 5.52513 2.02513C6.1815 1.36875 7.07174 1 8 1C8.92826 1 9.8185 1.36875 10.4749 2.02513C11.1313 2.6815 11.5 3.57174 11.5 4.5C11.5 5.42826 11.1313 6.3185 10.4749 6.97487C9.8185 7.63125 8.92826 8 8 8C7.07174 8 6.1815 7.63125 5.52513 6.97487C4.86875 6.3185 4.5 5.42826 4.5 4.5Z" fill="black"/>
<path d="M2.51607 12.2273C3.0593 11.2492 3.85424 10.4342 4.81849 9.8667C5.78275 9.29924 6.88123 9 8.00007 9C9.11891 9 10.2174 9.29924 11.1816 9.8667C12.1459 10.4342 12.9408 11.2492 13.4841 12.2273L13.9211 13.0133C14.034 13.217 14.0919 13.4466 14.0889 13.6795C14.0859 13.9124 14.0222 14.1405 13.904 14.3412C13.7858 14.5419 13.6173 14.7083 13.4151 14.8239C13.2129 14.9395 12.984 15.0003 12.7511 15.0003H3.24907C3.01616 15.0003 2.78728 14.9395 2.58507 14.8239C2.38287 14.7083 2.21434 14.5419 2.09616 14.3412C1.97798 14.1405 1.91424 13.9124 1.91124 13.6795C1.90825 13.4466 1.9661 13.217 2.07907 13.0133L2.51607 12.2273Z" fill="black"/>
</svg>
