<svg width="16" height="16" viewBox="0 0 16 16" fill="none" xmlns="http://www.w3.org/2000/svg">
<g clip-path="url(#clip0_110_1431)">
<path fill-rule="evenodd" clip-rule="evenodd" d="M9.52691 1.32716C8.92691 0.0211563 7.07191 0.0211563 6.47291 1.32716C6.29608 1.71242 5.98015 2.01659 5.58845 2.17868C5.19676 2.34078 4.75827 2.3488 4.36091 2.20116C3.01391 1.70116 1.70091 3.01416 2.20091 4.36116C2.34856 4.75852 2.34053 5.19701 2.17844 5.5887C2.01635 5.98039 1.71217 6.29633 1.32691 6.47316C0.0209121 7.07316 0.0209121 8.92816 1.32691 9.52716C1.71217 9.70399 2.01635 10.0199 2.17844 10.4116C2.34053 10.8033 2.34856 11.2418 2.20091 11.6392C1.70091 12.9862 3.01391 14.2982 4.36091 13.7992C4.75827 13.6515 5.19676 13.6595 5.58845 13.8216C5.98015 13.9837 6.29608 14.2879 6.47291 14.6732C7.07291 15.9792 8.92791 15.9792 9.52691 14.6732C9.70374 14.2879 10.0197 13.9837 10.4114 13.8216C10.8031 13.6595 11.2416 13.6515 11.6389 13.7992C12.9859 14.2982 14.2989 12.9862 13.7989 11.6392C13.6513 11.2418 13.6593 10.8033 13.8214 10.4116C13.9835 10.0199 14.2876 9.70399 14.6729 9.52716C15.9789 8.92716 15.9789 7.07216 14.6729 6.47316C14.2876 6.29633 13.9835 5.98039 13.8214 5.5887C13.6593 5.19701 13.6513 4.75852 13.7989 4.36116C14.2989 3.01416 12.9859 1.70116 11.6389 2.20116C11.2416 2.3488 10.8031 2.34078 10.4114 2.17868C10.0197 2.01659 9.70374 1.71242 9.52691 1.32716ZM6.99991 6.25016C6.99991 6.51537 6.89456 6.76973 6.70702 6.95726C6.51948 7.1448 6.26513 7.25016 5.99991 7.25016C5.7347 7.25016 5.48034 7.1448 5.29281 6.95726C5.10527 6.76973 4.99991 6.51537 4.99991 6.25016C4.99991 5.98494 5.10527 5.73059 5.29281 5.54305C5.48034 5.35551 5.7347 5.25016 5.99991 5.25016C6.26513 5.25016 6.51948 5.35551 6.70702 5.54305C6.89456 5.73059 6.99991 5.98494 6.99991 6.25016ZM10.5299 6.78016L6.52991 10.7802C6.46031 10.8498 6.37768 10.905 6.28675 10.9426C6.19581 10.9803 6.09834 10.9997 5.99991 10.9997C5.90148 10.9997 5.80402 10.9803 5.71308 10.9426C5.62214 10.905 5.53951 10.8498 5.46991 10.7802C5.40031 10.7106 5.3451 10.6279 5.30743 10.537C5.26977 10.4461 5.25038 10.3486 5.25038 10.2502C5.25038 10.1517 5.26977 10.0543 5.30743 9.96332C5.3451 9.87239 5.40031 9.78976 5.46991 9.72016L9.46991 5.72016C9.53951 5.65056 9.62214 5.59535 9.71308 5.55768C9.80402 5.52001 9.90148 5.50062 9.99991 5.50062C10.0983 5.50062 10.1958 5.52001 10.2867 5.55768C10.3777 5.59535 10.4603 5.65056 10.5299 5.72016C10.5995 5.78976 10.6547 5.87239 10.6924 5.96332C10.7301 6.05426 10.7494 6.15173 10.7494 6.25016C10.7494 6.34859 10.7301 6.44605 10.6924 6.53699C10.6547 6.62793 10.5995 6.71056 10.5299 6.78016ZM10.9999 10.2502C10.9999 10.5154 10.8946 10.7697 10.707 10.9573C10.5195 11.1448 10.2651 11.2502 9.99991 11.2502C9.7347 11.2502 9.48034 11.1448 9.29281 10.9573C9.10527 10.7697 8.99991 10.5154 8.99991 10.2502C8.99991 9.98494 9.10527 9.73059 9.29281 9.54305C9.48034 9.35551 9.7347 9.25016 9.99991 9.25016C10.2651 9.25016 10.5195 9.35551 10.707 9.54305C10.8946 9.73059 10.9999 9.98494 10.9999 10.2502Z" fill="black"/>
</g>
<defs>
<clipPath id="clip0_110_1431">
<rect width="16" height="16" fill="white"/>
</clipPath>
</defs>
</svg>
