<svg width="16" height="16" viewBox="0 0 16 16" fill="none" xmlns="http://www.w3.org/2000/svg">
<path d="M12 13.9991H10C9.73478 13.9991 9.48043 13.8938 9.29289 13.7062C9.10536 13.5187 9 13.2643 9 12.9991V10.4991C9 10.3665 8.94732 10.2393 8.85355 10.1456C8.75979 10.0518 8.63261 9.99912 8.5 9.99912H7.5C7.36739 9.99912 7.24021 10.0518 7.14645 10.1456C7.05268 10.2393 7 10.3665 7 10.4991V12.9991C7 13.2643 6.89464 13.5187 6.70711 13.7062C6.51957 13.8938 6.26522 13.9991 6 13.9991H4C3.46957 13.9991 2.96086 13.7884 2.58579 13.4133C2.21071 13.0383 2 12.5296 2 11.9991V7.74213C2 6.94613 2.316 6.18212 2.879 5.62012L6.586 1.91312C7.366 1.13313 8.633 1.13313 9.414 1.91312L13.121 5.62012C13.3997 5.89876 13.6208 6.22957 13.7716 6.59367C13.9224 6.95777 14 7.34802 14 7.74213V11.9991C14 12.5296 13.7893 13.0383 13.4142 13.4133C13.0391 13.7884 12.5304 13.9991 12 13.9991Z" fill="black"/>
</svg>
