<svg width="16" height="16" viewBox="0 0 16 16" fill="none" xmlns="http://www.w3.org/2000/svg">
<path d="M3 8C3 6.67392 3.52679 5.40215 4.46447 4.46447C5.40215 3.52679 6.67392 3 8 3C9.32609 3 10.5979 3.52679 11.5355 4.46447C12.4732 5.40215 13 6.67392 13 8C13 8.26522 13.1054 8.51957 13.2929 8.70711C13.4804 8.89465 13.7348 9 14 9C14.2652 9 14.5196 8.89465 14.7071 8.70711C14.8946 8.51957 15 8.26522 15 8C15 6.61553 14.5895 5.26216 13.8203 4.11101C13.0511 2.95987 11.9579 2.06266 10.6788 1.53285C9.3997 1.00303 7.99224 0.86441 6.63437 1.13451C5.2765 1.4046 4.02922 2.07129 3.05026 3.05026C2.07129 4.02922 1.4046 5.2765 1.13451 6.63437C0.86441 7.99224 1.00303 9.3997 1.53285 10.6788C2.06266 11.9579 2.95987 13.0511 4.11101 13.8203C5.26216 14.5895 6.61553 15 8 15C8.26522 15 8.51957 14.8946 8.70711 14.7071C8.89465 14.5196 9 14.2652 9 14C9 13.7348 8.89465 13.4804 8.70711 13.2929C8.51957 13.1054 8.26522 13 8 13C6.67392 13 5.40215 12.4732 4.46447 11.5355C3.52679 10.5979 3 9.32609 3 8Z" fill="black"/>
<path d="M9.2899 7.84095C9.30571 7.9731 9.34773 8.10076 9.4135 8.21645C9.47928 8.33215 9.56749 8.43355 9.67296 8.51472C9.77843 8.59588 9.89904 8.65518 10.0277 8.68913C10.1564 8.72308 10.2906 8.731 10.4224 8.71243C10.5541 8.69386 10.6809 8.64918 10.7952 8.58099C10.9095 8.5128 11.009 8.42248 11.0879 8.31533C11.1669 8.20818 11.2236 8.08635 11.2549 7.95699C11.2861 7.82762 11.2912 7.69332 11.2699 7.56195C11.1864 6.96856 10.9405 6.4098 10.5593 5.94743C10.1781 5.48506 9.67649 5.13708 9.1099 4.94195C8.6861 4.79636 8.23677 4.73997 7.79013 4.77635C7.34349 4.81273 6.9092 4.94108 6.51454 5.15333C6.11989 5.36559 5.77339 5.65717 5.49681 6.00975C5.22024 6.36234 5.01957 6.76831 4.90741 7.20216C4.79524 7.63601 4.77401 8.08837 4.84505 8.53082C4.91609 8.97327 5.07785 9.39625 5.32019 9.77318C5.56252 10.1501 5.88019 10.4729 6.25323 10.7212C6.62628 10.9694 7.04664 11.1379 7.4879 11.216C7.61726 11.2387 7.74983 11.2358 7.87805 11.2074C8.00628 11.1789 8.12764 11.1255 8.23522 11.0501C8.3428 10.9748 8.43448 10.879 8.50503 10.7682C8.57558 10.6574 8.62362 10.5338 8.6464 10.4045C8.66919 10.2751 8.66627 10.1425 8.63782 10.0143C8.60937 9.88608 8.55594 9.76471 8.48059 9.65713C8.40523 9.54956 8.30943 9.45788 8.19864 9.38733C8.08785 9.31677 7.96426 9.26874 7.8349 9.24595C7.608 9.20591 7.39658 9.10394 7.22399 8.95129C7.0514 8.79864 6.92436 8.60126 6.8569 8.38095C6.78826 8.16056 6.7825 7.92538 6.84027 7.70189C6.89805 7.4784 7.01706 7.27547 7.1839 7.11595C7.34968 6.95582 7.5565 6.84464 7.7815 6.79469C8.00651 6.74475 8.24095 6.75799 8.4589 6.83295C8.67632 6.90897 8.86873 7.04313 9.01524 7.22084C9.16175 7.39856 9.25675 7.61303 9.2899 7.84095Z" fill="black"/>
<path d="M9.61089 8.97387C9.52191 8.94243 9.42585 8.93682 9.33381 8.95768C9.24177 8.97854 9.15751 9.02503 9.09078 9.09176C9.02405 9.15849 8.97757 9.24275 8.95671 9.33479C8.93584 9.42682 8.94146 9.52289 8.97289 9.61187L11.0939 15.6219C11.1246 15.7067 11.1775 15.7816 11.2471 15.8389C11.3168 15.8961 11.4005 15.9336 11.4896 15.9473C11.5787 15.961 11.6699 15.9505 11.7535 15.9168C11.8372 15.8831 11.9102 15.8275 11.9649 15.7559L13.1369 14.1989L14.1749 15.2359C14.2687 15.3296 14.3958 15.3823 14.5284 15.3823C14.661 15.3823 14.7881 15.3296 14.8819 15.2359L15.2349 14.8829C15.3286 14.7891 15.3813 14.662 15.3813 14.5294C15.3813 14.3968 15.3286 14.2696 15.2349 14.1759L14.1979 13.1379L15.7549 11.9659C15.8265 11.9111 15.8821 11.8381 15.9158 11.7545C15.9495 11.6709 15.96 11.5797 15.9463 11.4906C15.9326 11.4015 15.8952 11.3177 15.8379 11.2481C15.7806 11.1785 15.7057 11.1255 15.6209 11.0949L9.61089 8.97387Z" fill="black"/>
</svg>
