<svg width="16" height="16" viewBox="0 0 16 16" fill="none" xmlns="http://www.w3.org/2000/svg">
<path d="M1 8.00075C0.999843 6.53378 1.46056 5.10383 2.31709 3.91288C3.17362 2.72193 4.38266 1.83017 5.77344 1.36355C7.16422 0.89694 8.66645 0.879056 10.0679 1.31243C11.4694 1.7458 12.6994 2.60853 13.584 3.77875C13.311 3.73252 13.0313 3.74349 12.7628 3.81096C12.4942 3.87843 12.2426 4.00093 12.0239 4.1707C11.8051 4.34047 11.624 4.55382 11.492 4.79723C11.36 5.04064 11.28 5.30881 11.257 5.58475C10.8118 5.79457 10.4158 6.09594 10.095 6.46916C9.77414 6.84239 9.53562 7.27909 9.395 7.75075H8C7.73844 7.75003 7.48364 7.66761 7.27122 7.51501C7.05879 7.3624 6.89936 7.14724 6.81519 6.89959C6.73103 6.65194 6.72634 6.38419 6.80179 6.13375C6.87723 5.88331 7.02905 5.6627 7.236 5.50275L7.698 5.14575C7.80621 5.06243 7.89379 4.95532 7.95396 4.83272C8.01413 4.71012 8.04528 4.57532 8.045 4.43875V4.39875C8.045 3.65175 8.651 3.04575 9.398 3.04575H9.455C9.648 3.04575 9.825 2.97675 9.964 2.86175C8.66627 2.36551 7.22881 2.3788 5.94047 2.89896C4.65214 3.41912 3.6084 4.40759 3.019 5.66575L4.909 7.55575C5.287 7.93475 5.5 8.44775 5.5 8.98275V9.50075C5.5 9.76597 5.60536 10.0203 5.79289 10.2079C5.98043 10.3954 6.23478 10.5008 6.5 10.5008C6.89783 10.5008 7.27936 10.6588 7.56066 10.9401C7.84197 11.2214 8 11.6029 8 12.0008V13.5008C8.43133 13.4994 8.849 13.4518 9.253 13.3578C9.282 13.9038 9.53 14.3928 9.911 14.7368C8.86955 15.0323 7.77375 15.0823 6.70973 14.8827C5.64571 14.6832 4.64247 14.2396 3.77887 13.5867C2.91528 12.9339 2.21486 12.0897 1.73268 11.1205C1.25051 10.1512 0.999706 9.08332 1 8.00075Z" fill="black"/>
<path d="M13.25 5C13.4489 5 13.6397 5.07902 13.7803 5.21967C13.921 5.36032 14 5.55109 14 5.75V6.5H14.75C14.9489 6.5 15.1397 6.57902 15.2803 6.71967C15.421 6.86032 15.5 7.05109 15.5 7.25C15.5 7.44891 15.421 7.63968 15.2803 7.78033C15.1397 7.92098 14.9489 8 14.75 8H12.75C12.5511 8 12.3603 8.07902 12.2197 8.21967C12.079 8.36032 12 8.55109 12 8.75C12 8.94891 12.079 9.13968 12.2197 9.28033C12.3603 9.42098 12.5511 9.5 12.75 9.5H13.25C13.825 9.50015 14.378 9.72041 14.7957 10.1156C15.2134 10.5107 15.4639 11.0507 15.4959 11.6248C15.5279 12.1989 15.3389 12.7634 14.9677 13.2025C14.5966 13.6416 14.0714 13.922 13.5 13.986V14.25C13.5 14.4489 13.421 14.6397 13.2803 14.7803C13.1397 14.921 12.9489 15 12.75 15C12.5511 15 12.3603 14.921 12.2197 14.7803C12.079 14.6397 12 14.4489 12 14.25V14H11.25C11.0511 14 10.8603 13.921 10.7197 13.7803C10.579 13.6397 10.5 13.4489 10.5 13.25C10.5 13.0511 10.579 12.8603 10.7197 12.7197C10.8603 12.579 11.0511 12.5 11.25 12.5H13.25C13.4489 12.5 13.6397 12.421 13.7803 12.2803C13.921 12.1397 14 11.9489 14 11.75C14 11.5511 13.921 11.3603 13.7803 11.2197C13.6397 11.079 13.4489 11 13.25 11H12.75C12.175 10.9998 11.622 10.7796 11.2043 10.3844C10.7866 9.98931 10.5361 9.44926 10.5041 8.8752C10.4721 8.30113 10.6611 7.73659 11.0323 7.29749C11.4034 6.85839 11.9286 6.57804 12.5 6.514V5.75C12.5 5.55109 12.579 5.36032 12.7197 5.21967C12.8603 5.07902 13.0511 5 13.25 5Z" fill="black"/>
</svg>
