<svg width="14" height="14" viewBox="0 0 14 14" fill="none" xmlns="http://www.w3.org/2000/svg">
<path fill-rule="evenodd" clip-rule="evenodd" d="M1.255 2.847C1.35164 2.19466 1.67949 1.59876 2.17877 1.16795C2.67806 0.737127 3.31554 0.500075 3.975 0.5H10.025C10.6845 0.500075 11.3219 0.737127 11.8212 1.16795C12.3205 1.59876 12.6484 2.19466 12.745 2.847L13.405 7.307C13.4683 7.73233 13.5 8.15967 13.5 8.589V10.25C13.5 11.112 13.1576 11.9386 12.5481 12.5481C11.9386 13.1576 11.112 13.5 10.25 13.5H3.75C2.88805 13.5 2.0614 13.1576 1.4519 12.5481C0.84241 11.9386 0.5 11.112 0.5 10.25V8.59C0.5 8.16 0.531333 7.73233 0.594 7.307L1.255 2.847ZM3.975 2C3.67528 2.00013 3.38558 2.10794 3.15871 2.3038C2.93183 2.49965 2.78288 2.77051 2.739 3.067L2.156 7H4.64C5.178 7 5.655 7.344 5.825 7.855L5.984 8.329C6.00057 8.37876 6.03238 8.42205 6.07491 8.45274C6.11744 8.48343 6.16855 8.49996 6.221 8.5H7.779C7.83133 8.50003 7.88234 8.48364 7.92486 8.45314C7.96738 8.42264 7.99926 8.37957 8.016 8.33L8.175 7.855C8.25787 7.60619 8.41689 7.38975 8.62955 7.23631C8.84222 7.08287 9.09776 7.0002 9.36 7H11.844L11.261 3.067C11.2171 2.77051 11.0682 2.49965 10.8413 2.3038C10.6144 2.10794 10.3247 2.00013 10.025 2H3.975Z" fill="black"/>
</svg>
