<svg width="16" height="16" viewBox="0 0 16 16" fill="none" xmlns="http://www.w3.org/2000/svg">
<path d="M11 6C11.2652 6 11.5196 5.89464 11.7071 5.70711C11.8946 5.51957 12 5.26522 12 5C12 4.73478 11.8946 4.48043 11.7071 4.29289C11.5196 4.10536 11.2652 4 11 4C10.7348 4 10.4804 4.10536 10.2929 4.29289C10.1054 4.48043 10 4.73478 10 5C10 5.26522 10.1054 5.51957 10.2929 5.70711C10.4804 5.89464 10.7348 6 11 6Z" fill="black"/>
<path fill-rule="evenodd" clip-rule="evenodd" d="M9.27601 1.5C8.25601 1.5 7.28201 1.915 6.57501 2.649L2.32101 7.066C1.82132 7.58484 1.54515 8.27904 1.55188 8.99936C1.55861 9.71967 1.84771 10.4086 2.35701 10.918L5.25501 13.816C5.71809 14.2791 6.3444 14.542 6.99927 14.5482C7.65415 14.5543 8.28529 14.3033 8.75701 13.849L13.504 9.278C13.8189 8.97483 14.0695 8.61125 14.2406 8.20901C14.4117 7.80677 14.5 7.37413 14.5 6.937V4.75C14.5 3.88805 14.1576 3.0614 13.5481 2.4519C12.9386 1.84241 12.112 1.5 11.25 1.5H9.27601ZM7.65601 3.69C7.86543 3.47152 8.11694 3.29774 8.39537 3.17914C8.6738 3.06055 8.97338 2.99961 9.27601 3H11.25C12.216 3 13 3.784 13 4.75V6.937C13 7.412 12.806 7.867 12.464 8.197L7.71701 12.769C7.52821 12.9507 7.27565 13.051 7.01365 13.0484C6.75165 13.0457 6.50115 12.9404 6.31601 12.755L3.41801 9.857C3.18683 9.62544 3.05566 9.31246 3.05267 8.98527C3.04968 8.65807 3.1751 8.34275 3.40201 8.107L7.65501 3.689L7.65601 3.69Z" fill="black"/>
</svg>
